<?xml version="1.0" encoding="utf-8"?>
<!-- Svg Vector Icons : http://www.onlinewebfonts.com/icon -->
<!DOCTYPE svg PUBLIC "-//W3C//DTD SVG 1.1//EN" "http://www.w3.org/Graphics/SVG/1.1/DTD/svg11.dtd">
<svg version="1.1" xmlns="http://www.w3.org/2000/svg" xmlns:xlink="http://www.w3.org/1999/xlink" x="0px" y="0px" viewBox="0 0 1000 1000" enable-background="new 0 0 1000 1000" xml:space="preserve">
<metadata> Svg Vector Icons : http://www.onlinewebfonts.com/icon </metadata>
<g><path d="M500,990L500,990L500,990z"/><path d="M990,500c0-60.9-11.2-119.2-31.5-173l-59.5,16.7c19,48.5,29.8,101,29.8,156.2c0,236.8-191.9,428.7-428.7,428.7C263.2,928.7,71.3,736.8,71.3,500c0-236.8,192-428.8,428.8-428.8c56.2,0,109.8,11.1,159,30.8l17.2-59.3C621.5,21.7,562.2,10,500,10C229.4,10,10,229.4,10,500c0,270.6,219.4,490,490,490C770.6,990,990,770.6,990,500z"/><path d="M441.4,630.3l28,28c3.3,3.3,7.7,5.1,12.4,5.1c4.7,0,9.1-1.8,12.4-5.1l489.1-489.1c6.8-6.8,6.8-18,0-24.8l-28-28c-3.3-3.3-7.7-5.1-12.4-5.1s-9.1,1.8-12.4,5.1L441.4,605.6C434.6,612.4,434.6,623.5,441.4,630.3z"/><path d="M494.8,658.3l28-28c3.3-3.3,5.1-7.7,5.1-12.4s-1.8-9.1-5.1-12.4l-209-200.1c-6.8-6.8-18-6.8-24.8,0l-28,28c-3.3,3.3-5.1,7.7-5.1,12.4c0,4.7,1.8,9.1,5.1,12.4l209.1,200.1C476.9,665.2,488,665.2,494.8,658.3z"/></g>
</svg>